PathFileType	4	(X/Y/Z)	/Users/visionmauri/Downloads/pro-gait-dataset/4_0_1_f_1_Sports2D/4_0_1_f_1_Sports2D_m_person00.trc
DataRate	CameraRate	NumFrames	NumMarkers	Units	OrigDataRate	OrigDataStartFrame	OrigNumFrames
30.0	30.0	7	22	m	30.0	0	654
Frame#	Time	Hip			RHip			RKnee			RAnkle			RBigToe			RSmallToe			RHeel			LHip			LKnee			LAnkle			LBigToe			LSmallToe			LHeel			Neck			Head			Nose			RShoulder			RElbow			RWrist			LShoulder			LElbow			LWrist			
		X1	Y1	Z1	X2	Y2	Z2	X3	Y3	Z3	X4	Y4	Z4	X5	Y5	Z5	X6	Y6	Z6	X7	Y7	Z7	X8	Y8	Z8	X9	Y9	Z9	X10	Y10	Z10	X11	Y11	Z11	X12	Y12	Z12	X13	Y13	Z13	X14	Y14	Z14	X15	Y15	Z15	X16	Y16	Z16	X17	Y17	Z17	X18	Y18	Z18	X19	Y19	Z19	X20	Y20	Z20	X21	Y21	Z21	X22	Y22	Z22
0	0.0	1.4167063596971838	0.25134678550767586	0.0301	1.5045372125957648	0.3693289150462491	0.0301	1.8341613372296879	-0.08025975203276185	0.129	2.17975347444699	-0.5007284444546872	0.023	2.13474387564716	-0.6340444500555675	0.2179	2.1935373698829927	-0.6017948227053095	0.1804	2.22773856861032	-0.5726764402028887	-0.0119	1.307890275652592	0.18366372724649802	0.0301	1.6937739055585364	-0.3440223965835228	0.129	2.1033982443364763	-0.7533635726968599	0.023	1.9509651309796998	-0.8276951311572275	0.2179	1.9847762123534471	-0.8721643988373304	0.1804	2.1981242903367293	-0.7886793432354229	-0.0119	0.8014248469898403	0.8173051967788959	0.0008	0.5465600730459289	1.0073329007698557	0.0655	0.6409914783457077	0.8195498995349405	0.1076	1.076471207455005	0.8940696304583139	-0.01275	1.4514662932370561	0.6984584040665605	0.0702	1.6370421025670248	0.41695230911279535	0.1076	0.7168026020558304	0.5974240005279965	-0.01275	0.9384812127413046	0.19368587644785248	0.0702	1.127104246939874	-0.12304337866164836	0.1076
1	0.0333843797856049	1.4135895686783517	0.2531748054918898	0.0301	1.502452352083761	0.37299930326613584	0.0301	1.833789781094823	-0.08087234560502499	0.129	2.1728651019792555	-0.498542816993839	0.023	2.134494596002533	-0.633678068627767	0.2179	2.1925444934498697	-0.6032668831669713	0.1804	2.2242810593246944	-0.5739786892854808	-0.0119	1.30490135312442	0.1858053682994097	0.0301	1.6956727870243795	-0.3412214018822234	0.129	2.1031374579493773	-0.7507215865398504	0.023	1.9502258299405448	-0.8281902492400851	0.2179	1.984798907755315	-0.8727891035379965	0.1804	2.1970900437551255	-0.7890678592424564	-0.0119	0.7977147556769972	0.8161839521334652	0.0008	0.5418116910139796	1.0042119948000319	0.0655	0.6353488199343928	0.8138593332755192	0.1076	1.0740331168648816	0.8941395968986466	-0.01275	1.448101386613416	0.7030469910399225	0.0702	1.6298480352104212	0.4203501419534124	0.1076	0.7111181670938236	0.5916600178111566	-0.01275	0.9372478367979908	0.1871821918744598	0.0702	1.1251698607921028	-0.12881422065394177	0.1076
2	0.0667687595712098	1.4079888469442794	0.2535679423590591	0.0301	1.4980541046551301	0.37632456575618134	0.0301	1.8260476906029668	-0.08077153289813814	0.129	2.1563755076064655	-0.4930537492838878	0.023	2.1267404306792006	-0.6263293200417035	0.2179	2.1830649948085274	-0.5970162518181187	0.1804	2.211961573515563	-0.5703191131033261	-0.0119	1.3000017032801625	0.18674616277707307	0.0301	1.695904938145277	-0.33572583440004544	0.129	2.103060772749104	-0.7483908770957621	0.023	1.9498376802823045	-0.8289015747343598	0.2179	1.9855965843354135	-0.8724484526449707	0.1804	2.1985993997389413	-0.7907366520130549	-0.0119	0.7927404162557379	0.813844823040547	0.0008	0.5337330904857309	0.9986280794410157	0.0655	0.625812128119062	0.8059671765546912	0.1076	1.0702009029240829	0.8923596654994508	-0.01275	1.4446221883054258	0.7078766265803333	0.0702	1.6218530542267626	0.4264746521662021	0.1076	0.7034256407821272	0.5843961375996546	-0.01275	0.9315222440441339	0.17824420087270273	0.0702	1.120657272343706	-0.13622401766977751	0.1076
3	0.10015313935681469	1.4005123146935115	0.2522109708356863	0.0301	1.49278013811935	0.3770460677718865	0.0301	1.8100858030960192	-0.08053007838095494	0.129	2.1320520683196302	-0.485047442300679	0.023	2.1085014779422795	-0.6090890991632287	0.2179	2.1621620403504163	-0.5787776276486877	0.1804	2.1899219923258784	-0.5613354946843104	-0.0119	1.2938738218262025	0.18549305994367102	0.0301	1.6952149076538552	-0.32920436541609155	0.129	2.10354440400214	-0.7482061198957546	0.023	1.9507141554848806	-0.8300433446117026	0.2179	1.9867106981198301	-0.8712351650174134	0.1804	2.2031541542416333	-0.7943395245329397	-0.0119	0.7872401792594435	0.8101240981504729	0.0008	0.5242620704532656	0.991630136254277	0.0655	0.6148699563772639	0.7973126249794271	0.1076	1.0653107446593415	0.8892808366445402	-0.01275	1.4420184468562263	0.7114493757046692	0.0702	1.617795856588655	0.4337627370904397	0.1076	0.6949788488828534	0.5772848651589145	-0.01275	0.9212695488139364	0.16813086615051878	0.0702	1.1142117648716838	-0.14330896096634915	0.1076
4	0.1335375191424196	1.393543167753603	0.25092881555880175	0.0301	1.4894391852766684	0.3749591716940704	0.0301	1.7942832125289216	-0.08087734010572656	0.129	2.109911140105388	-0.47786942359815515	0.023	2.080337604159398	-0.5859357792665624	0.2179	2.134963876169618	-0.5525807879770034	0.1804	2.1648719745762595	-0.5508401104016127	-0.0119	1.2876119794371066	0.1827270498494543	0.0301	1.6960274465460892	-0.3258260346039983	0.129	2.1047388433980645	-0.7508620879532901	0.023	1.9529150715567223	-0.8307582514513183	0.2179	1.987360561203159	-0.8701914774001982	0.1804	2.2076307495170835	-0.7978873151091834	-0.0119	0.780898245275944	0.8055916631717459	0.0008	0.5182935880018286	0.9867120478718057	0.0655	0.6083138062855106	0.7919183095110945	0.1076	1.0593483206300442	0.8883416407661582	-0.01275	1.439325346379992	0.7147400191146699	0.0702	1.6190160359024617	0.4387366051778081	0.1076	0.6860546937497772	0.5711165123126212	-0.01275	0.9099575055056023	0.15855567112731397	0.0702	1.1077182471692055	-0.14715880569633388	0.1076
5	0.1669218989280245	1.3892387931282613	0.25027601419290635	0.0301	1.4881851875159955	0.372925914601408	0.0301	1.7863198181176807	-0.08048417342272743	0.129	2.095011958022657	-0.47104323131539155	0.023	2.0508597442284935	-0.56335980414313	0.2179	2.112584249118899	-0.5289375069638598	0.1804	2.14290650875146	-0.5392535300297685	-0.0119	1.2816038366708327	0.17951289023642042	0.0301	1.6994887002131858	-0.3263563146641344	0.129	2.106504810325424	-0.7540946204866167	0.023	1.9569390188463471	-0.8294761667039808	0.2179	1.988283701036807	-0.8702565718198828	0.1804	2.2088658406288113	-0.799017316519043	-0.0119	0.7731178783739734	0.8016703395928373	0.0008	0.5179765248000672	0.9854584581730581	0.0655	0.6088242100597248	0.7929312484194169	0.1076	1.0522812533391448	0.8911608736019307	-0.01275	1.435827704687296	0.7188072083956601	0.0702	1.6210415874943085	0.4404439124166233	0.1076	0.6757001562622253	0.5650339179615592	-0.01275	0.9003450664286097	0.15033080507844618	0.0702	1.101454160014909	-0.14764726910355724	0.1076
6	0.20030627871362938	1.3887684225718007	0.24825487877229307	0.0301	1.4871659215370598	0.37235854361377574	0.0301	1.7833050277238878	-0.07747422531717352	0.129	2.08287326270135	-0.4600202171183147	0.023	2.0367833757935845	-0.5440281846773306	0.2179	2.1058514717536068	-0.5160880079652441	0.1804	2.125390814872794	-0.5238066054860783	-0.0119	1.277719498259168	0.17600429885237032	0.0301	1.70499661547366	-0.3271345343500871	0.129	2.1090238490216815	-0.7556029968327577	0.023	1.9643941598644106	-0.8259485734272822	0.2179	1.9905245644183962	-0.8718063398250411	0.1804	2.2075080114016843	-0.7999436778438324	-0.0119	0.7666601577984261	0.8000743827481258	0.0008	0.520833629766471	0.985159131082408	0.0655	0.6131377445003898	0.7982258220783272	0.1076	1.0466057099149515	0.8944054859447417	-0.01275	1.433859419801532	0.7209501363660507	0.0702	1.6226406224137797	0.4402811203719917	0.1076	0.666761286918342	0.5594388280130278	-0.01275	0.8929033724045626	0.144146312715041	0.0702	1.0950905042022365	-0.14819474429636245	0.1076
